<svg width="80" height="81" viewBox="0 0 80 81" fill="none" xmlns="http://www.w3.org/2000/svg">
<g clip-path="url(#clip0_50_126)">
<path d="M58.2372 30.3063L40.0003 79.2349L5.73248 59.9133V21.2666L58.2372 30.3063Z" fill="#E0B76E"/>
<path d="M40.0003 1.94507L5.73248 21.2666L40.0003 40.5899V79.2349L74.2681 59.9134V21.2666L40.0003 1.94507Z" fill="#F4CE8F"/>
<path d="M40.1542 40.4096V79.0545L74.422 59.7329V21.0862L40.1542 40.4096Z" fill="#F2CA7F"/>
<path d="M27.6869 72.2937V33.6468L41.8405 25.6654H41.8422H41.8419H30.2492L30.308 20.2126L30.3089 20.2122L17.0853 27.6681V66.1812" fill="#8CC1EA"/>
<path d="M27.6869 72.2938V33.647L17.0853 27.6682V66.1813" fill="#79B1D6"/>
<path d="M51.4289 8.3103L37.2755 16.2919H37.2736H37.2741H48.8666L48.808 21.7447L48.8071 21.7451L62.0305 14.2892" fill="#8CC1EA"/>
<path d="M57.625 45.7404C58.0517 45.1264 57.8998 44.2823 57.2856 43.8554L53.5941 41.2901C53.2806 41.0723 52.8897 40.9971 52.5178 41.0825C52.1456 41.1681 51.8273 41.4064 51.6405 41.7392L47.8311 48.5221C47.4648 49.1742 47.6965 50 48.3486 50.3662C48.5584 50.484 48.7861 50.54 49.0106 50.54C49.4842 50.54 49.9442 50.2909 50.1926 49.8485L51.467 47.5796V64.4573C51.467 65.2053 52.0733 65.8117 52.8214 65.8117C53.5695 65.8117 54.1758 65.2053 54.1758 64.4573V44.9926L55.7401 46.0798C56.3545 46.5068 57.1981 46.3545 57.625 45.7404Z" fill="black"/>
<path d="M66.6262 51.3166C65.9736 50.9502 65.1484 51.1821 64.7822 51.8342L63.5076 54.1032V37.2257C63.5076 36.4777 62.9014 35.8713 62.1533 35.8713C61.4051 35.8713 60.7989 36.4777 60.7989 37.2257V56.6902L59.2345 55.6031C58.6197 55.176 57.7762 55.3284 57.3495 55.9424C56.9228 56.5565 57.0747 57.4006 57.6889 57.8274L61.3804 60.3927C61.6094 60.5516 61.8795 60.6349 62.1533 60.6349C62.2545 60.6349 62.3562 60.6235 62.4567 60.6006C62.8287 60.5149 63.1472 60.2767 63.334 59.9438L67.1436 53.1609C67.5101 52.5085 67.2784 51.6829 66.6262 51.3166Z" fill="black"/>
<path d="M74.9328 19.9974L40.665 0.674609C40.2522 0.441797 39.7475 0.441797 39.3347 0.674609L5.06675 19.9974C4.64097 20.2376 4.37769 20.6885 4.37769 21.1771V59.8227C4.37769 60.3115 4.64097 60.7624 5.06675 61.0024L27.0227 73.3829C27.0322 73.3883 27.0416 73.394 27.0514 73.399L39.3347 80.3254C39.5411 80.4418 39.7707 80.5001 40 80.5001C40.2296 80.5001 40.4586 80.4419 40.6653 80.3254L74.9333 61.0026C75.3591 60.7624 75.6224 60.3115 75.6224 59.8229V21.1773C75.6221 20.6884 75.3586 20.2374 74.9328 19.9974ZM49.8296 15.2493C49.5752 14.9921 49.2285 14.8473 48.8667 14.8473H42.4344L51.3591 9.81429L59.2039 14.2379L50.1872 19.3219L50.221 16.2162C50.2249 15.8546 50.0839 15.5063 49.8296 15.2493ZM7.08612 23.4955L15.731 28.3702V57.6598C15.731 58.4077 16.3374 59.0141 17.0853 59.0141C17.8333 59.0141 18.4397 58.4077 18.4397 57.6598V29.8976L26.3327 34.3482V69.8843L18.4397 65.4337V62.1741C18.4397 61.4262 17.8333 60.8198 17.0853 60.8198C16.3374 60.8198 15.731 61.4262 15.731 62.1741V63.9063L7.08612 59.0316V23.4955ZM29.2866 26.5276C29.541 26.7848 29.8877 26.9296 30.2494 26.9296H36.6819L27.6867 32.0021L19.8419 27.5785L28.9286 22.4551L28.8952 25.5609C28.8911 25.9224 29.0321 26.2705 29.2866 26.5276ZM38.6455 76.8271L29.0413 71.4115V35.8755L38.6455 41.2912V76.8271ZM41.3541 76.8271V41.2912L58.9022 31.3962C59.5538 31.0287 59.7841 30.2027 59.4169 29.5512C59.0496 28.8996 58.2238 28.6693 57.5719 29.0365L39.9997 38.9451L30.4438 33.5566L42.4603 26.7804C42.5452 26.7366 42.625 26.6841 42.6983 26.6241C43.0021 26.3759 43.196 25.998 43.196 25.5749C43.196 24.827 42.5897 24.2205 41.8416 24.2205H31.618L31.6616 20.1868C31.6747 19.9184 31.6083 19.6437 31.4547 19.3999C31.0696 18.7887 30.2727 18.5873 29.6435 18.9419L17.0841 26.0234L8.48909 21.1773L39.9999 3.40914L48.6019 8.25961L36.6578 14.9951C36.2194 15.2193 35.9194 15.6755 35.9194 16.2016C35.9194 16.9496 36.526 17.556 37.2739 17.556H47.4975L47.4538 21.5951C47.4414 21.8693 47.5121 22.1493 47.6728 22.3954C47.9316 22.7913 48.3644 23.0093 48.808 23.0093C49.0338 23.0093 49.2625 22.9527 49.4722 22.8344L61.9614 15.7926L71.5105 21.177L63.0482 25.9487C62.3966 26.3162 62.1663 27.1421 62.5335 27.7937C62.9007 28.4452 63.7271 28.6754 64.3785 28.3084L72.9136 23.4955V59.0319L41.3541 76.8271Z" fill="black"/>
</g>
<defs>
<clipPath id="clip0_50_126">
<rect width="80" height="80" fill="white" transform="translate(0 0.5)"/>
</clipPath>
</defs>
</svg>
