<svg width="86" height="85" viewBox="0 0 86 85" fill="none" xmlns="http://www.w3.org/2000/svg">
<path d="M43 85C66.4721 85 85.5 65.9721 85.5 42.5C85.5 19.0279 66.4721 0 43 0C19.5279 0 0.5 19.0279 0.5 42.5C0.5 65.9721 19.5279 85 43 85Z" fill="#0052B4"/>
<path d="M43.0002 16.6304L44.3763 20.8653H48.8288L45.2264 23.4825L46.6025 27.7174L43.0002 25.1L39.3976 27.7174L40.7737 23.4825L37.1714 20.8653H41.6241L43.0002 16.6304Z" fill="#FFDA44"/>
<path d="M24.7074 24.2072L28.6752 26.2286L31.8237 23.0803L31.1269 27.4781L35.0945 29.4996L30.6966 30.1963L30 34.5943L27.9784 30.6267L23.5807 31.3235L26.7291 28.175L24.7074 24.2072Z" fill="#FFDA44"/>
<path d="M17.1306 42.5L21.3655 41.1238V36.6711L23.9826 40.2737L28.2176 38.8976L25.6001 42.5L28.2176 46.1023L23.9826 44.7264L21.3655 48.3288V43.8761L17.1306 42.5Z" fill="#FFDA44"/>
<path d="M24.7074 60.7925L26.729 56.8247L23.5807 53.6762L27.9786 54.3731L29.9998 50.4055L30.6966 54.8034L35.0943 55.5L31.1272 57.5216L31.8237 61.9194L28.6752 58.7709L24.7074 60.7925Z" fill="#FFDA44"/>
<path d="M43.0002 68.3694L41.6239 64.1345H37.1714L40.7739 61.5173L39.3976 57.2827L43.0002 59.8998L46.6025 57.2827L45.2264 61.5173L48.8288 64.1345H44.3761L43.0002 68.3694Z" fill="#FFDA44"/>
<path d="M61.2928 60.7925L57.3252 58.771L54.1765 61.9195L54.8733 57.5214L50.906 55.5L55.3038 54.8034L56.0004 50.4055L58.0218 54.3731L62.4195 53.6762L59.271 56.825L61.2928 60.7925Z" fill="#FFDA44"/>
<path d="M68.8696 42.5L64.6347 43.8761V48.3288L62.0174 44.7262L57.7829 46.1023L60.4001 42.5L57.7829 38.8976L62.0176 40.2737L64.6347 36.6711V41.124L68.8696 42.5Z" fill="#FFDA44"/>
<path d="M61.2928 24.2073L59.2712 28.1751L62.4197 31.3236L58.0216 30.6266L56.0004 34.5943L55.3038 30.1963L50.906 29.4996L54.8733 27.4782L54.1765 23.0806L57.3253 26.2289L61.2928 24.2073Z" fill="#FFDA44"/>
</svg>
