<svg width="45" height="45" viewBox="0 0 45 45" fill="none" xmlns="http://www.w3.org/2000/svg">
<path d="M11.86 23.967H16.7927V44.2742C16.7927 44.6752 17.1176 45 17.5185 45H25.8821C26.2831 45 26.6079 44.6752 26.6079 44.2742V24.0627H32.2785C32.6472 24.0627 32.9575 23.786 32.9996 23.4198L33.8608 15.9437C33.8845 15.738 33.8193 15.532 33.6817 15.3777C33.544 15.2233 33.3468 15.1349 33.14 15.1349H26.6083V10.4484C26.6083 9.03577 27.3689 8.31938 28.8693 8.31938C29.0832 8.31938 33.14 8.31938 33.14 8.31938C33.5409 8.31938 33.8658 7.99436 33.8658 7.59357V0.731162C33.8658 0.330205 33.5409 0.00536133 33.14 0.00536133H27.2544C27.2129 0.00333984 27.1207 0 26.9848 0C25.9636 0 22.414 0.200478 19.61 2.77998C16.5032 5.63854 16.9351 9.06108 17.0383 9.65452V15.1347H11.86C11.459 15.1347 11.1342 15.4595 11.1342 15.8605V23.2411C11.1342 23.642 11.4591 23.967 11.86 23.967Z" fill="white"/>
</svg>
