<svg width="45" height="45" viewBox="0 0 45 45" fill="none" xmlns="http://www.w3.org/2000/svg">
<path d="M31.5943 0H13.4057C6.01379 0 0 6.01379 0 13.4057V31.5943C0 38.9862 6.01379 45 13.4057 45H31.5943C38.9862 45 45 38.9862 45 31.5943V13.4057C44.9999 6.01379 38.9861 0 31.5943 0ZM40.473 31.5943C40.473 36.4978 36.4978 40.473 31.5943 40.473H13.4057C8.50219 40.473 4.527 36.4978 4.527 31.5943V13.4057C4.527 8.50211 8.50219 4.527 13.4057 4.527H31.5943C36.4978 4.527 40.473 8.50211 40.473 13.4057V31.5943Z" fill="white"/>
<path d="M22.5 10.8613C16.0825 10.8613 10.8614 16.0824 10.8614 22.4998C10.8614 28.9173 16.0825 34.1384 22.5 34.1384C28.9175 34.1384 34.1386 28.9174 34.1386 22.4998C34.1386 16.0823 28.9175 10.8613 22.5 10.8613ZM22.5 29.6115C18.5723 29.6115 15.3884 26.4276 15.3884 22.4999C15.3884 18.5723 18.5724 15.3883 22.5 15.3883C26.4277 15.3883 29.6116 18.5723 29.6116 22.4999C29.6116 26.4275 26.4276 29.6115 22.5 29.6115Z" fill="white"/>
<path d="M34.1608 13.7377C35.701 13.7377 36.9496 12.4891 36.9496 10.9489C36.9496 9.40873 35.701 8.16016 34.1608 8.16016C32.6206 8.16016 31.3721 9.40873 31.3721 10.9489C31.3721 12.4891 32.6206 13.7377 34.1608 13.7377Z" fill="white"/>
</svg>
