<svg width="76" height="75" viewBox="0 0 76 75" fill="none" xmlns="http://www.w3.org/2000/svg">
<g clip-path="url(#clip0_50_112)">
<path d="M48.3498 31.117C47.5931 30.5673 47.2141 29.6355 47.3724 28.7135L48.8091 20.337L42.7232 14.4045C42.0534 13.7516 41.8124 12.7752 42.1016 11.8854C42.3906 10.9958 43.1595 10.3475 44.0852 10.2132L52.4958 8.99105L56.2569 1.36963C56.6707 0.531005 57.5249 0 58.4603 0C59.3958 0 60.2499 0.531005 60.6639 1.36963L64.4251 8.99105L72.8357 10.2132C73.7613 10.3475 74.5303 10.9958 74.8194 11.8854C75.1085 12.7752 74.8674 13.7516 74.1977 14.4045L68.1119 20.3368L69.5486 28.7134C69.7066 29.6353 69.3277 30.567 68.5711 31.1167C67.8142 31.6666 66.8106 31.7389 65.9833 31.3039L58.4606 27.3489L50.9381 31.3039C50.1078 31.7402 49.105 31.6655 48.3498 31.117Z" fill="#F9A926"/>
<path d="M73.4621 43.8464C72.5364 43.2877 71.3553 43.4008 70.551 44.1217C70.4675 44.197 70.3838 44.2708 70.3003 44.3429C65.0335 48.9625 58.4841 51.2494 51.9493 51.2494C47.0396 51.2494 42.1398 49.9585 37.7986 47.3883C37.7281 47.349 37.6593 47.308 37.589 47.2654C35.6968 46.1251 33.9146 44.7393 32.2877 43.1125C21.8409 32.6641 21.3971 15.858 31.2786 4.84929C31.9994 4.04495 32.1124 2.86385 31.5538 1.93822C30.9953 1.01258 29.8977 0.562144 28.8492 0.825815C22.2374 2.49031 16.2171 5.89768 11.4385 10.678C-3.28888 25.4038 -3.28726 49.2378 11.4385 63.9619C18.6744 71.1994 28.1137 74.8739 37.589 74.9967C47.3968 75.1244 57.2423 71.4434 64.7224 63.9619C69.5026 59.1833 72.9085 53.163 74.5745 46.5513C74.8381 45.5027 74.3877 44.4053 73.4621 43.8464Z" fill="#FFC033"/>
<path d="M74.5744 46.5513C72.9083 53.163 69.5026 59.1833 64.7224 63.9619C57.2424 71.4436 47.3968 75.1246 37.589 74.9967V47.2655C37.6594 47.3081 37.7283 47.349 37.7986 47.3884C42.1398 49.9588 47.0397 51.2496 51.9492 51.2496C58.484 51.2496 65.0335 48.9627 70.3003 44.343C70.3838 44.2709 70.4675 44.1973 70.551 44.1218C71.3553 43.401 72.5364 43.288 73.462 43.8466C74.3877 44.4053 74.8381 45.5027 74.5744 46.5513Z" fill="#F9A926"/>
</g>
<defs>
<clipPath id="clip0_50_112">
<rect width="75" height="75" fill="white" transform="translate(0.166687)"/>
</clipPath>
</defs>
</svg>
