<svg width="81" height="81" viewBox="0 0 81 81" fill="none" xmlns="http://www.w3.org/2000/svg">
<g clip-path="url(#clip0_50_119)">
<path d="M38.0101 74.6894C55.6092 74.6894 69.876 60.4225 69.876 42.8235C69.876 25.2244 55.6092 10.9575 38.0101 10.9575C20.411 10.9575 6.14413 25.2244 6.14413 42.8235C6.14413 60.4225 20.411 74.6894 38.0101 74.6894Z" fill="#E8594F"/>
<path d="M38.0101 65.3168C25.6071 65.3168 15.5164 55.2261 15.5164 42.8232C15.5164 30.4202 25.6071 20.3296 38.0101 20.3296C50.4131 20.3296 60.5037 30.4204 60.5037 42.8232C60.5037 55.226 50.4131 65.3168 38.0101 65.3168Z" fill="#EFEFEF"/>
<path d="M38.01 55.9444C30.7747 55.9444 24.8888 50.0582 24.8888 42.8232C24.8888 35.5882 30.7747 29.7019 38.01 29.7019C45.2453 29.7019 51.1313 35.5882 51.1313 42.8232C51.1313 50.0582 45.2452 55.9444 38.01 55.9444Z" fill="#E8594F"/>
<path d="M78.8338 9.95217L71.5438 9.28935L70.881 1.99951L62.7958 10.0848L63.5911 17.2422L70.7485 18.0373L78.8338 9.95217Z" fill="#F4AD47"/>
<path d="M70.5827 19.5278C70.6382 19.5341 70.6935 19.537 70.7487 19.537C71.1438 19.537 71.526 19.3805 71.8088 19.0978L79.8941 11.0127C80.3054 10.6012 80.4418 9.98906 80.2437 9.44187C80.0456 8.89468 79.5488 8.51155 78.9695 8.4589L72.924 7.90937L72.3741 1.86389C72.3216 1.28451 71.9384 0.787793 71.3913 0.589824C70.8443 0.391855 70.232 0.527949 69.8204 0.939356L61.7351 9.02468C61.4131 9.34671 61.2546 9.79796 61.3051 10.2508L62.0207 16.6919L60.5066 18.2059C54.9148 13.0908 47.5804 9.85218 39.5094 9.49343V6.64608C39.5094 5.81796 38.838 5.14655 38.0099 5.14655C37.1818 5.14655 36.5104 5.81796 36.5104 6.64608V9.49296C19.3034 10.258 5.44491 24.1164 4.67975 41.3236H1.83288C1.00475 41.3236 0.333344 41.995 0.333344 42.8232C0.333344 43.6513 1.00475 44.3227 1.83288 44.3227H4.67975C5.44491 61.5299 19.3034 75.3882 36.5104 76.1534V79.0002C36.5104 79.8284 37.1818 80.4998 38.0099 80.4998C38.838 80.4998 39.5094 79.8284 39.5094 79.0002V76.1534C56.7165 75.3884 70.5749 61.5299 71.3401 44.3227H74.187C75.0151 44.3227 75.6865 43.6513 75.6865 42.8232C75.6865 41.995 75.0151 41.3236 74.187 41.3236H71.3401C70.9813 33.2527 67.7427 25.9183 62.6277 20.3261L64.1418 18.812L70.5827 19.5278ZM69.6774 5.32374L70.0504 9.42531C70.116 10.1462 70.687 10.7173 71.4079 10.783L75.5095 11.1558L70.1977 16.4675L64.9488 15.8844L64.3657 10.6356L69.6774 5.32374ZM68.339 41.3236H66.2263C65.3982 41.3236 64.7268 41.995 64.7268 42.8232C64.7268 43.6513 65.3982 44.3227 66.2263 44.3227H68.339C67.5788 59.876 55.0629 72.3921 39.5096 73.1521V71.0396C39.5096 70.2115 38.8382 69.5401 38.0101 69.5401C37.1819 69.5401 36.5105 70.2115 36.5105 71.0396V73.1521C20.9573 72.392 8.44116 59.8758 7.68116 44.3227H9.79381C10.6219 44.3227 11.2933 43.6513 11.2933 42.8232C11.2933 41.995 10.6219 41.3236 9.79381 41.3236H7.681C8.44116 25.7705 20.9571 13.2542 36.5104 12.4942V14.6067C36.5104 15.4348 37.1818 16.1063 38.0099 16.1063C38.838 16.1063 39.5094 15.4348 39.5094 14.6067V12.4942C46.7541 12.8483 53.3396 15.7528 58.3852 20.327L53.873 24.8392C49.6413 21.1019 44.0863 18.83 38.0098 18.83C24.7799 18.83 14.0166 29.5931 14.0166 42.8232C14.0166 56.0532 24.7799 66.8163 38.0098 66.8163C51.2396 66.8163 62.0029 56.0532 62.0029 42.8232C62.0029 36.7467 59.731 31.1917 55.994 26.9597L60.5062 22.4475C65.0806 27.4935 67.9849 34.0791 68.339 41.3236ZM36.9496 43.8836C37.2426 44.1764 37.6262 44.3229 38.0099 44.3229C38.3938 44.3229 38.7776 44.1764 39.0702 43.8836L47.214 35.7399C48.7277 37.7024 49.6315 40.1588 49.6315 42.8233C49.6315 49.2316 44.418 54.4451 38.0098 54.4451C31.6015 54.4451 26.388 49.2316 26.388 42.8233C26.388 36.415 31.6015 31.2016 38.0098 31.2016C40.6743 31.2016 43.1305 32.1053 45.0932 33.6191L36.9494 41.7628C36.3641 42.3486 36.3641 43.298 36.9496 43.8836ZM47.2279 31.4847C44.7107 29.4345 41.5021 28.2025 38.0101 28.2025C29.948 28.2025 23.3893 34.7614 23.3893 42.8233C23.3893 50.8852 29.948 57.4441 38.0101 57.4441C46.0721 57.4441 52.6309 50.8852 52.6309 42.8233C52.6309 39.3314 51.3988 36.1227 49.3487 33.6055L53.8709 29.0833C57.0673 32.7681 59.0041 37.5736 59.0041 42.8232C59.0041 54.3993 49.5863 63.8171 38.0102 63.8171C26.4341 63.8171 17.0163 54.3993 17.0163 42.8232C17.0163 31.2471 26.4341 21.8292 38.0102 21.8292C43.2596 21.8292 48.0654 23.7661 51.7502 26.9625L47.2279 31.4847Z" fill="#231F20"/>
</g>
<defs>
<clipPath id="clip0_50_119">
<rect width="80" height="80" fill="white" transform="translate(0.333344 0.5)"/>
</clipPath>
</defs>
</svg>
