<svg width="45" height="45" viewBox="0 0 45 45" fill="none" xmlns="http://www.w3.org/2000/svg">
<path d="M23.4956 0.0379688C25.9495 0 28.3894 0.0225 30.8264 0C30.9741 2.87016 32.0062 5.79375 34.1072 7.82297C36.2039 9.90281 39.1697 10.8548 42.0553 11.1769V18.727C39.3511 18.6384 36.6342 18.0759 34.1803 16.9116C33.1116 16.4278 32.1159 15.8048 31.1414 15.1678C31.1287 20.6466 31.1639 26.1183 31.1062 31.5745C30.96 34.1958 30.0951 36.8044 28.5708 38.9644C26.1183 42.5602 21.8616 44.9044 17.4895 44.9775C14.8078 45.1308 12.1289 44.3995 9.84375 43.0523C6.05672 40.8192 3.39188 36.7313 3.00375 32.3438C2.95875 31.4058 2.94328 30.4692 2.98125 29.5538C3.31875 25.9861 5.08359 22.5731 7.82297 20.2514C10.928 17.5472 15.2775 16.2591 19.35 17.0212C19.388 19.7986 19.2769 22.5731 19.2769 25.3505C17.4164 24.7486 15.2423 24.9173 13.6167 26.0466C12.4298 26.8158 11.5284 27.9942 11.0587 29.3273C10.6706 30.278 10.7817 31.3341 10.8042 32.3438C11.25 35.4206 14.2087 38.0067 17.3672 37.7269C19.4611 37.7044 21.4678 36.4894 22.5591 34.7105C22.912 34.0875 23.3072 33.4505 23.3283 32.7178C23.5125 29.3639 23.4394 26.0241 23.4619 22.6702C23.4773 15.1116 23.4394 7.57406 23.497 0.039375L23.4956 0.0379688Z" fill="white"/>
</svg>
